# AST/ASF file generated using VICON BodyLanguage
# -----------------------------------------------
:version 1.10
:name VICON
:units
  mass 1.0
  length 0.45
  angle deg
:documentation
   .ast/.asf automatically generated from VICON data using
   VICON BodyBuilder and BodyLanguage model FoxedUp or BRILLIANT.MOD
:root
   order TX TY TZ RX RY RZ
   axis XYZ
   position 0 0 0  
   orientation 0 0 0 
:bonedata
  begin
     id 1 
     name lhipjoint
     direction 0.610259 -0.730986 0.305356 
     length 2.50941 
     axis 0 0 0  XYZ
  end
  begin
     id 2 
     name lfemur
     direction 0.34202 -0.939693 0  
     length 7.48822  
     axis 0 0 20  XYZ
    dof rx ry rz
    limits (-160.0 20.0)
           (-70.0 70.0)
           (-60.0 70.0)
  end
  begin
     id 3 
     name ltibia
     direction 0.34202 -0.939693 0   
     length 7.60141   
     axis 0 0 20   XYZ
    dof rx
    limits (-10.0 170.0)
  end
  begin
     id 4 
     name lfoot
     direction 0.0673488 -0.185039 0.980421   
     length 2.04049   
     axis -90 7.62852e-016 20   XYZ
    dof rx rz
    limits (-45.0 90.0)
           (-70.0 20.0)
  end
  begin
     id 5 
     name ltoes
     direction 1.5356e-011 -4.21729e-011 1   
     length 1.02897   
     axis -90 7.62852e-016 20   XYZ
    dof rx
    limits (-90.0 20.0)
  end
  begin
     id 6 
     name rhipjoint
     direction -0.57612 -0.754205 0.315056   
     length 2.43216  
     axis 0 0 0  XYZ 
  end
  begin
     id 7 
     name rfemur
     direction -0.34202 -0.939693 0   
     length 7.42799   
     axis 0 0 -20   XYZ
    dof rx ry rz
    limits (-160.0 20.0)
           (-70.0 70.0)
           (-70.0 60.0)
  end
  begin
     id 8 
     name rtibia
     direction -0.34202 -0.939693 0   
     length 7.69484   
     axis 0 0 -20   XYZ
    dof rx
    limits (-10.0 170.0)
 end
 begin
     id 9 
     name rfoot
     direction -0.111837 -0.30727 0.945028   
     length 2.15769  
     axis -90 -7.62852e-016 -20   XYZ
    dof rx rz
    limits (-45.0 90.0)
           (-20.0 70.0)
  end
  begin
     id 10 
     name rtoes
     direction -1.53539e-011 -4.21878e-011 1   
     length 1.07391   
     axis -90 -7.62852e-016 -20   XYZ
    dof rx
    limits (-90.0 20.0)
  end
  begin
     id 11 
     name lowerback
     direction 0.00552624 0.990109 -0.140195   
     length 2.12403   
     axis 0 0 0   XYZ
    dof rx ry rz
    limits (-20.0 45.0)
           (-30.0 30.0)
           (-30.0 30.0)
  end
  begin
     id 12 
     name upperback
     direction 0.00361898 0.999976 -0.00584723   
     length 2.13232   
     axis 0 0 0   XYZ
    dof rx ry rz
    limits (-20.0 45.0)
           (-30.0 30.0)
           (-30.0 30.0)
  end
  begin
     id 13 
     name thorax
     direction -0.000331275 0.998253 0.0590847   
     length 2.17688   
     axis 0 0 0   XYZ
    dof rx ry rz
    limits (-20.0 45.0)
           (-30.0 30.0)
           (-30.0 30.0)
  end
  begin
     id 14 
     name lowerneck
     direction -0.0561561 0.979832 0.19177   
     length 1.64159   
     axis 0 0 0   XYZ
    dof rx ry rz
    limits (-20.0 45.0)
           (-30.0 30.0)
           (-30.0 30.0)
  end
  begin
     id 15 
     name upperneck
     direction 0.0827153 0.979385 -0.184293   
     length 1.68939   
     axis 0 0 0   XYZ
    dof rx ry rz
    limits (-20.0 45.0)
           (-30.0 30.0)
           (-30.0 30.0)
  end
  begin
     id 16
     name head
     direction 0.0278583 0.995936 -0.0856488  
     length 1.70207  
     axis 0 0 0   XYZ
    dof rx ry rz
    limits (-20.0 45.0)
           (-30.0 30.0)
           (-30.0 30.0)
  end
  begin
     id 17 
     name lclavicle
     direction 0.950993 0.301131 -0.0702275  
     length 3.41652  
     axis 0 0 0   XYZ
    dof ry rz
    limits (-20.0 10.0)
           (0.0 20.0)
  end
  begin
     id 18 
     name lhumerus
     direction 1 -4.48981e-011 -3.9662e-029   
     length 5.32955   
     axis 180 -30 -90   XYZ
    dof rx ry rz
    limits (-60.0 90.0)
           (-90.0 90.0)
           (-90.0 90.0)
  end
  begin
     id 19
     name lradius
     direction 1 -4.48925e-011 -9.0549e-027   
     length 3.69232   
     axis 180 -30 -90   XYZ
    dof rx
    limits (-10.0 170.0)
  end
  begin
     id 20
     name lwrist
     direction 1 -4.49007e-011 -1.49005e-026   
     length 1.84616   
     axis 9.0955e-015 90 90   XYZ
    dof ry
    limits (-180.0 0.0)
 end
  begin
     id 21 
     name lhand
     direction 1 -4.49016e-011 -2.98023e-026   
     length 0.536598   
     axis 1.90115e-014 90 90   XYZ
    dof rx rz
    limits (-90.0 90.0)
           (-45.0 45.0)
  end
  begin
     id 22 
     name lfingers
     direction 1 -4.48924e-011 -5.9578e-026   
     length 0.432619   
     axis 3.80223e-014 90 90   XYZ
    dof rx
    limits (0.0 90.0)
  end
  begin
     id 23
     name lthumb
     direction 0.707107 -6.34947e-011 0.707107   
     length 0.621157   
     axis -90 45 -3.84942e-014   XYZ
    dof rx rz
    limits (-45.0 45.0)
           (-45.0 45.0)
  end
  begin
     id 24 
     name rclavicle
     direction -0.955495 0.276497 -0.102848   
     length 3.36357  
     axis 0 0 0   XYZ 
    dof ry rz
    limits (-10.0 20.0)
           (-20.0 0.0)
  end
  begin
     id 25 
     name rhumerus
     direction -1 -4.48961e-011 3.30983e-027  
     length 5.23431   
     axis 180 30 90   XYZ
    dof rx ry rz
    limits (-90.0 60.0)
           (-90.0 90.0)
           (-90.0 90.0)
  end
  begin
     id 26 
     name rradius
     direction -1 -4.48965e-011 -6.63263e-027   
     length 3.55301   
     axis 180 30 90   XYZ
    dof rx
    limits (-10.0 170.0)
  end
  begin
     id 27 
     name rwrist
     direction -1 -4.48942e-011 -1.48958e-026   
     length 1.77651   
     axis 9.0955e-015 -90 -90   XYZ
    dof ry
    limits (-180.0 0.0)
  end
  begin
     id 28
     name rhand
     direction -1 -4.48977e-011 -2.97966e-026   
     length 0.772522   
     axis 1.90115e-014 -90 -90   XYZ
    dof rx rz
    limits (-90.0 90.0)
           (-45.0 45.0)
  end
  begin
     id 29
     name rfingers
     direction -1 -4.49135e-011 -5.96389e-026   
     length 0.622827   
     axis 3.80223e-014 -90 -90   XYZ
    dof rx
    limits (0.0 90.0)
  end
  begin
     id 30
     name rthumb
     direction -0.707107 -6.34969e-011 0.707107   
     length 0.894259   
     axis -90 -45 3.84942e-014   XYZ
    dof rx rz
    limits (-45.0 45.0)
           (-45.0 45.0)
  end
:hierarchy
  begin
    root lhipjoint rhipjoint lowerback
    lhipjoint lfemur
    lfemur ltibia
    ltibia lfoot
    lfoot ltoes
    rhipjoint rfemur
    rfemur rtibia
    rtibia rfoot
    rfoot rtoes
    lowerback upperback
    upperback thorax
    thorax lowerneck lclavicle rclavicle
    lowerneck upperneck
    upperneck head
    lclavicle lhumerus
    lhumerus lradius
    lradius lwrist
    lwrist lhand lthumb
    lhand lfingers
    rclavicle rhumerus
    rhumerus rradius
    rradius rwrist
    rwrist rhand rthumb
    rhand rfingers
  end

#!OML:ASF F:\VICON\USERDATA\INSTALL\rory3\rory3.ASF
:FULLY-SPECIFIED
:DEGREES
1
root -10.8685 17.8166 15.192 -20.9719 -88.7607 21.4361
lowerback 9.11941 1.28442 0.100089
upperback -0.686397 1.7923 1.39036
thorax -5.88009 0.896386 1.1447
lowerneck -24.5792 2.43658 -6.55742
upperneck 31.2519 4.68198 3.70248
head 14.6653 1.58972 3.51673
rclavicle -1.34677e-014 -7.95139e-015
rhumerus -33.7086 -11.8884 -81.1429
rradius 32.8037
rwrist 6.63412
rhand -14.9369 8.65705
rfingers 7.12502
rthumb 11.2256 -21.0226
lclavicle -1.34677e-014 -7.95139e-015
lhumerus -31.8486 -3.67305 94.0915
lradius 28.5558
lwrist -8.13335
lhand -15.3918 24.8717
lfingers 7.12502
lthumb 10.7868 54.5747
rfemur -12.4033 -0.290359 22.0956
rtibia 32.6543
rfoot -16.7405 -3.38841
rtoes 9.53621
lfemur -8.78058 -4.14825 -22.5081
ltibia 24.5022
lfoot -11.9885 -2.75655
ltoes -0.913207
2
root -10.8701 17.8207 15.191 -19.6969 -88.7763 20.2071
lowerback 9.03937 1.31852 0.138341
upperback -0.713383 1.84152 1.38145
thorax -5.86267 0.919558 1.10832
lowerneck -24.5346 2.41972 -6.51057
upperneck 31.2545 4.64611 3.66467
head 14.6622 1.57414 3.48538
rclavicle -3.05383e-014 -1.27222e-014
rhumerus -33.7183 -11.963 -81.0783
rradius 32.6402
rwrist 6.49103
rhand -14.945 8.80834
rfingers 7.12502
rthumb 11.2178 -20.8717
lclavicle -3.05383e-014 -1.27222e-014
lhumerus -31.7118 -3.69886 93.9532
lradius 28.4384
lwrist -8.21286
lhand -15.2444 25.1798
lfingers 7.12502
lthumb 10.929 54.8753
rfemur -12.4121 -0.163644 22.1349
rtibia 32.5964
rfoot -16.7147 -3.49002
rtoes 9.67397
lfemur -8.85061 -4.18799 -22.4697
ltibia 24.546
lfoot -11.9802 -2.83228
ltoes -0.62513
3
root -10.8713 17.8268 15.1915 -18.1445 -88.7544 18.6612
lowerback 9.01015 1.33461 0.219668
upperback -0.723017 1.87076 1.36291
thorax -5.85355 0.931177 1.03966
lowerneck -24.5083 2.36203 -6.62268
upperneck 31.2436 4.57836 3.74336
head 14.6503 1.54419 3.52304
rclavicle 1.13059e-014 4.37326e-015
rhumerus -33.7809 -12.098 -80.9832
rradius 32.5523
rwrist 6.49286
rhand -14.9022 9.04554
rfingers 7.12502
rthumb 11.259 -20.6323
lclavicle 1.13059e-014 4.37326e-015
lhumerus -31.5797 -3.60884 93.803
lradius 28.3353
lwrist -8.38026
lhand -15.3751 25.233
lfingers 7.12502
lthumb 10.803 54.9352
rfemur -12.3855 0.0248271 22.169
rtibia 32.5535
rfoot -16.7433 -3.69171
rtoes 9.68148
lfemur -8.87741 -4.31154 -22.4451
ltibia 24.5776
lfoot -11.9477 -2.80308
ltoes -0.228947
4
root -10.8725 17.8293 15.1919 -14.5125 -88.7288 15.0023
lowerback 8.98897 1.34279 0.369835
upperback -0.699598 1.89539 1.33227
thorax -5.81131 0.937987 0.920524
lowerneck -24.5444 2.29844 -6.81836
upperneck 31.2489 4.49563 3.95727
head 14.6527 1.51787 3.63069
rclavicle -2.48481e-016 -7.95139e-016
rhumerus -33.8276 -12.2931 -80.9475
rradius 32.4979
rwrist 6.54284
rhand -14.7707 9.05803
rfingers 7.12502
rthumb 11.3859 -20.6128
lclavicle -2.48481e-016 -7.95139e-016
lhumerus -31.4251 -3.41902 93.5695
lradius 28.2657
lwrist -8.6284
lhand -15.7006 25.403
lfingers 7.12502
lthumb 10.489 55.1213
rfemur -12.3467 0.179993 22.2537
rtibia 32.5643
rfoot -16.8516 -3.8987
rtoes 9.67008
lfemur -8.84374 -4.38563 -22.3754
ltibia 24.5603
lfoot -11.9292 -2.76912
ltoes -0.176911
5
root -10.8732 17.8238 15.1899 -15.4147 -88.588 15.8666
lowerback 8.97513 1.3415 0.345701
upperback -0.662507 1.88741 1.27828
thorax -5.76318 0.934068 0.87953
lowerneck -24.5994 2.26772 -6.83811
upperneck 31.2675 4.45124 3.99512
head 14.6744 1.50168 3.64428
rclavicle 1.22004e-014 -2.78299e-015
rhumerus -33.8144 -12.3214 -80.9815
rradius 32.4303
rwrist 6.49268
rhand -14.8509 8.73124
rfingers 7.12502
rthumb 11.3086 -20.9439
lclavicle 1.22004e-014 -2.78299e-015
lhumerus -31.2078 -3.16598 93.3208
lradius 28.1696
lwrist -8.86932
lhand -16.2996 26.0157
lfingers 7.12502
lthumb 9.91112 55.7624
rfemur -12.3088 0.10272 22.2051
rtibia 32.5928
rfoot -16.9179 -4.00915
rtoes 9.43235
lfemur -8.80133 -4.42584 -22.4367
ltibia 24.53
lfoot -11.9468 -2.79101
ltoes -0.38219
6
root -10.8729 17.8177 15.1863 -20.4845 -88.3261 20.8383
lowerback 9.06897 1.32359 0.125761
upperback -0.640857 1.83681 1.20777
thorax -5.79733 0.914971 0.93472
lowerneck -24.5907 2.25462 -6.78047
upperneck 31.2917 4.42469 3.94309
head 14.6892 1.48813 3.60899
rclavicle -3.27995e-015 -1.19271e-015
rhumerus -33.8345 -12.1633 -81.0203
rradius 32.3418
rwrist 6.26115
rhand -14.9502 8.41763
rfingers 7.12502
rthumb 11.2128 -21.2627
lclavicle -3.27995e-015 -1.19271e-015
lhumerus -31.0259 -2.94069 93.1544
lradius 28.0611
lwrist -8.77487
lhand -16.9543 26.7458
lfingers 7.12502
lthumb 9.27946 56.5216
rfemur -12.2174 -0.0327431 21.9884
rtibia 32.6415
rfoot -16.9291 -4.13483
rtoes 8.85405
lfemur -8.70157 -4.42222 -22.6635
ltibia 24.4812
lfoot -11.9996 -2.87149
ltoes -0.926431
7
root -10.8744 17.8188 15.1838 -21.8634 -88.1499 22.1609
lowerback 9.09738 1.29592 0.00391416
upperback -0.614288 1.78502 1.1806
thorax -5.78742 0.892796 0.981768
lowerneck -24.573 2.25715 -6.76165
upperneck 31.2419 4.43431 3.90339
head 14.6643 1.49127 3.58853
rclavicle 1.73937e-015 -7.55382e-015
rhumerus -33.8239 -12.0587 -81.0255
rradius 32.1954
rwrist 6.13489
rhand -14.9468 8.4431
rfingers 7.12502
rthumb 11.2161 -21.2371
lclavicle 1.73937e-015 -7.55382e-015
lhumerus -30.8601 -2.8357 93.0169
lradius 27.9817
lwrist -8.49532
lhand -17.5966 27.0974
lfingers 7.12502
lthumb 8.65968 56.8998
rfemur -12.1664 -0.094905 21.8761
rtibia 32.6965
rfoot -16.944 -4.22626
rtoes 8.61913
lfemur -8.62921 -4.4363 -22.7733
ltibia 24.4128
lfoot -11.964 -2.9898
ltoes -1.01194
8
root -10.876 17.8203 15.1843 -23.5659 -88.0437 23.8548
lowerback 9.07815 1.31854 -0.101849
upperback -0.598312 1.80266 1.16588
thorax -5.7629 0.904555 1.02397
lowerneck -24.5302 2.22562 -6.80667
upperneck 31.1465 4.41505 3.87678
head 14.6137 1.47883 3.57633
rclavicle -8.12532e-015 9.93923e-015
rhumerus -33.8274 -12.2885 -80.8656
rradius 32.0019
rwrist 6.29851
rhand -14.8017 8.48404
rfingers 7.12502
rthumb 11.356 -21.1885
lclavicle -8.12532e-015 9.93923e-015
lhumerus -30.7487 -2.95914 92.9573
lradius 27.9622
lwrist -8.31477
lhand -18.1373 27.067
lfingers 7.12502
lthumb 8.13781 56.8903
rfemur -12.1666 -0.140361 21.7635
rtibia 32.7426
rfoot -17.0014 -4.22668
rtoes 8.87637
lfemur -8.58849 -4.60184 -22.8829
ltibia 24.3491
lfoot -11.8412 -3.05735
ltoes -0.143547
9
root -10.8774 17.821 15.1855 -25.3304 -87.9595 25.6517
lowerback 9.02992 1.35325 -0.17363
upperback -0.607336 1.83923 1.12481
thorax -5.74674 0.924426 1.01726
lowerneck -24.4242 2.1978 -6.78415
upperneck 31.0079 4.38695 3.79287
head 14.5348 1.46423 3.52388
rclavicle -1.81143e-014 -3.18055e-015
rhumerus -33.8867 -12.7731 -80.6429
rradius 31.8275
rwrist 6.8533
rhand -14.523 8.29731
rfingers 7.12502
rthumb 11.6248 -21.3602
lclavicle -1.81143e-014 -3.18055e-015
lhumerus -30.6394 -2.88276 92.8142
lradius 27.9097
lwrist -8.41584
lhand -18.3009 26.7764
lfingers 7.12502
lthumb 7.97992 56.6058
rfemur -12.2083 -0.242589 21.6464
rtibia 32.7653
rfoot -17.04 -4.13144
rtoes 8.97299
lfemur -8.59869 -4.72333 -22.99
ltibia 24.3167
lfoot -11.7578 -3.09764
ltoes 0.617236
10
root -10.8778 17.8209 15.1874 -25.4503 -87.912 25.7979
lowerback 8.99667 1.36585 -0.166296
upperback -0.620514 1.85559 1.09682
thorax -5.74091 0.932031 0.98222
lowerneck -24.4308 2.19198 -6.77649
upperneck 31.0193 4.37073 3.80759
head 14.5421 1.46004 3.52642
rclavicle 2.60905e-015 7.95139e-016
rhumerus -33.9717 -13.1773 -80.469
rradius 31.6856
rwrist 7.44625
rhand -14.4794 8.2254
rfingers 7.12502
rthumb 11.6668 -21.4298
lclavicle 2.60905e-015 7.95139e-016
lhumerus -30.5002 -2.58297 92.5509
lradius 27.8534
lwrist -8.59342
lhand -17.9724 26.3461
lfingers 7.12502
lthumb 8.297 56.1631
rfemur -12.2579 -0.370952 21.6102
rtibia 32.8047
rfoot -17.0649 -4.07915
rtoes 8.56959
lfemur -8.60658 -4.71185 -23.0285
ltibia 24.274
lfoot -11.756 -3.09358
ltoes 0.398344
11
root -10.8781 17.8184 15.1902 -23.951 -87.8844 24.2892
lowerback 8.99225 1.3636 -0.0902105
upperback -0.617228 1.86056 1.09547
thorax -5.73253 0.932058 0.937499
lowerneck -24.4957 2.20461 -6.79929
upperneck 31.0929 4.38962 3.84999
head 14.5854 1.46814 3.55625
rclavicle 1.07592e-014 -2.78299e-015
rhumerus -34.0264 -13.2085 -80.4414
rradius 31.584
rwrist 7.46996
rhand -14.6802 8.18814
rfingers 7.12502
rthumb 11.4732 -21.4779
lclavicle 1.07592e-014 -2.78299e-015
lhumerus -30.3519 -2.34159 92.3257
lradius 27.8206
lwrist -8.60886
lhand -17.6757 26.37
lfingers 7.12502
lthumb 8.58331 56.1755
rfemur -12.2656 -0.505876 21.6379
rtibia 32.8524
rfoot -17.0913 -4.01438
rtoes 8.67343
lfemur -8.56681 -4.6941 -22.9985
ltibia 24.2222
lfoot -11.7436 -3.05185
ltoes -0.104165
